<?xml version="1.0" standalone="no"?>
<!DOCTYPE svg PUBLIC "-//W3C//DTD SVG 20010904//EN"
 "http://www.w3.org/TR/2001/REC-SVG-20010904/DTD/svg10.dtd">
<svg version="1.0" xmlns="http://www.w3.org/2000/svg"
 width="5408.000000pt" height="652.000000pt" viewBox="0 0 5408.000000 652.000000"
 preserveAspectRatio="xMidYMid meet">

<g transform="translate(0.000000,652.000000) scale(0.100000,-0.100000)"
fill="#000000" stroke="none">
<path fill="#ffffff" d="M310 6093 c-4 -70 -4 -895 0 -1833 l2 -1605 10023 1 9822 2 3 1626
2 1626 -9809 0 c-5505 0 -9816 3 -9825 6 -13 5 -16 -11 -18 -103z"/>
<path d="M298 6093 c-2 -70 -2 -895 0 -1833 l2 -1705 10023 1 10022 2 3 1826
2 1826 -10009 0 c-5505 0 -10016 3 -10025 6 -13 5 -16 -11 -18 -123z m1902
-768 c143 -29 330 -107 330 -138 0 -7 -4 -17 -9 -22 -11 -13 -81 -191 -81
-208 0 -6 -9 -23 -19 -37 -17 -21 -23 -23 -43 -13 -81 38 -138 64 -173 78 -49
20 -209 55 -250 55 -46 0 -159 -26 -191 -44 -16 -8 -36 -18 -44 -22 -26 -10
-60 -74 -60 -112 0 -38 19 -74 55 -104 29 -25 148 -69 240 -89 181 -39 360
-98 442 -145 56 -33 147 -124 161 -162 40 -114 53 -242 28 -291 -9 -16 -16
-39 -16 -51 0 -11 -10 -40 -21 -63 -121 -238 -465 -353 -860 -287 -199 34
-374 96 -441 158 -34 32 -34 45 3 102 16 25 45 78 66 119 20 40 42 75 48 77 6
3 59 -20 118 -51 59 -30 115 -55 125 -55 10 0 22 -4 28 -9 15 -14 190 -41 270
-41 218 0 342 98 279 220 -27 51 -139 102 -310 141 -127 29 -263 67 -312 89
-25 11 -50 20 -56 20 -17 0 -119 80 -165 129 -94 99 -119 188 -93 323 26 133
125 284 215 330 22 11 48 26 56 32 37 29 181 72 305 90 60 9 292 -3 375 -19z
m8865 7 c17 -5 55 -15 85 -22 117 -27 285 -126 382 -223 258 -260 311 -689
125 -1012 -107 -185 -321 -344 -524 -389 -37 -8 -86 -20 -108 -25 -111 -29
-376 1 -524 59 -328 128 -553 471 -527 805 17 224 63 353 180 498 128 160 318
269 546 312 82 16 312 14 365 -3z m-6495 -167 l0 -155 -419 0 -418 0 -6 -71
c-3 -39 -3 -116 0 -170 l6 -99 361 -2 361 -3 0 -150 0 -150 -362 -3 -362 -2
-6 -43 c-3 -23 -5 -105 -3 -182 l3 -140 443 -5 c243 -3 442 -8 442 -12 0 -5 0
-73 0 -153 l0 -145 -645 0 -645 0 0 820 0 820 625 0 625 0 0 -155z m1146 141
c10 -8 19 -19 19 -25 0 -6 26 -41 58 -78 68 -80 272 -334 359 -448 82 -107
237 -299 287 -355 l40 -45 1 483 0 482 190 0 190 0 0 -820 0 -820 -158 0 -158
0 -61 63 c-33 34 -78 85 -99 113 -71 93 -168 215 -237 296 -38 45 -102 122
-142 172 -40 50 -84 103 -97 118 -12 15 -48 62 -78 104 l-55 77 -5 -469 -5
-469 -202 -3 -203 -2 0 820 0 820 168 0 c129 0 173 -3 188 -14z m2414 -311 l0
-325 350 0 350 0 2 323 3 322 193 3 192 2 0 -820 0 -820 -189 0 c-163 0 -190
2 -195 16 -3 9 -6 162 -6 340 l0 324 -347 -2 -348 -3 -5 -335 -5 -335 -200 0
-200 0 -3 805 c-1 443 0 811 3 818 3 9 54 12 205 12 l200 0 0 -325z m5407 288
c110 -41 186 -90 254 -160 64 -66 87 -104 120 -194 21 -56 24 -82 24 -209 0
-131 -2 -151 -25 -205 -50 -122 -130 -216 -237 -277 -29 -16 -53 -33 -52 -36
0 -4 10 -21 22 -38 55 -79 137 -198 208 -304 43 -63 87 -126 98 -140 11 -13
17 -28 15 -32 -6 -10 -405 -10 -421 0 -6 4 -46 59 -89 122 -42 63 -100 148
-128 188 -28 40 -58 86 -66 102 l-15 30 -157 0 -158 0 -2 -222 -3 -223 -200 0
-200 0 -3 805 c-1 443 0 811 3 818 4 11 94 12 467 10 l463 -4 82 -31z m1561
-780 l-3 -818 -192 -3 -193 -2 0 820 0 820 195 0 195 0 -2 -817z m2112 662 l0
-155 -257 0 -258 0 0 -662 0 -663 -200 0 -200 0 -3 662 -2 663 -258 2 -257 3
-3 140 c-1 76 0 145 2 152 4 10 144 13 721 13 l715 0 0 -155z m1595 109 c11
-22 25 -54 32 -70 31 -77 65 -159 89 -211 41 -91 79 -179 130 -298 25 -60 61
-141 78 -180 18 -38 43 -95 56 -125 12 -30 41 -95 63 -145 22 -49 50 -112 62
-140 13 -27 34 -76 49 -108 14 -32 26 -60 26 -63 0 -7 65 -147 86 -186 8 -14
14 -36 14 -47 0 -21 -2 -21 -202 -19 l-203 3 -17 35 c-31 62 -75 164 -98 228
l-23 62 -362 0 -363 0 -27 -52 c-15 -29 -39 -82 -52 -117 -13 -36 -27 -70 -31
-76 -4 -5 -12 -26 -17 -45 l-11 -35 -197 -3 c-168 -2 -198 0 -203 13 -5 11 78
212 182 440 7 17 32 73 55 125 57 133 77 177 105 237 13 28 24 58 24 65 0 8 4
18 9 24 5 5 32 63 60 129 29 66 58 134 66 150 17 36 38 85 100 230 25 61 50
119 55 130 5 11 16 37 24 58 l15 37 203 -2 203 -3 20 -41z"/>
<path d="M10781 5024 c-58 -13 -114 -36 -193 -80 -33 -18 -93 -87 -131 -152
-34 -59 -32 -52 -56 -145 -27 -99 -27 -196 0 -294 54 -200 176 -328 349 -367
275 -63 505 75 590 353 19 64 22 88 17 185 -6 125 -26 193 -82 286 -65 108
-162 175 -303 211 -86 22 -103 22 -191 3z"/>
<path d="M12930 4729 l0 -281 198 4 198 3 69 35 c103 51 128 92 133 213 5 122
-8 168 -64 223 -72 69 -134 84 -355 84 l-179 0 0 -281z"/>
<path d="M18557 4853 c-15 -32 -27 -64 -27 -70 0 -7 -10 -34 -21 -60 -49 -108
-59 -132 -90 -211 -17 -45 -36 -85 -40 -88 -5 -3 -9 -15 -9 -26 0 -12 -7 -29
-16 -39 -32 -35 -10 -39 222 -39 193 0 225 2 231 15 3 9 -11 52 -31 96 -20 45
-36 85 -36 90 0 4 -11 32 -24 61 -12 29 -38 91 -56 138 -18 47 -37 89 -42 95
-4 5 -8 16 -8 25 -1 8 -6 27 -13 43 l-12 27 -28 -57z"/>
<path d="M34760 4105 c-8 -2 -62 -9 -120 -15 -348 -39 -697 -177 -975 -387
-434 -326 -690 -771 -735 -1279 -6 -65 -13 -125 -15 -132 -4 -10 -175 -12
-832 -10 l-828 3 -3 898 -2 897 -433 -2 -432 -3 -5 -895 -5 -895 -186 -3 -187
-2 -32 40 c-17 21 -73 95 -123 163 -51 68 -184 247 -297 397 -113 151 -360
481 -550 734 l-345 461 -410 0 -410 0 -2 -889 c-2 -489 -6 -893 -11 -898 -4
-4 -429 -7 -943 -6 l-934 3 -5 895 -5 895 -463 0 -463 0 -2 -890 -2 -890
-1597 -3 c-1275 -2 -1598 0 -1598 10 0 7 -1 409 -3 893 l-2 880 -450 3 c-247
1 -459 0 -470 -2 -20 -5 -20 -12 -17 -1861 l2 -1855 1255 0 1255 0 0 395 0
395 -785 0 -784 0 -3 463 c-2 254 -1 465 3 470 3 4 723 6 1600 5 l1594 -3 1
-860 0 -860 465 0 464 0 2 860 2 860 908 3 c499 1 927 0 951 -3 l43 -6 -3
-857 -3 -857 433 -3 432 -2 0 859 0 859 31 6 c44 9 314 6 373 -3 31 -5 56 -16
65 -29 37 -46 267 -356 281 -376 16 -25 82 -114 160 -216 27 -36 88 -117 135
-180 182 -243 234 -312 389 -520 89 -118 168 -224 176 -236 40 -57 104 -140
118 -152 12 -9 111 -12 419 -12 l403 0 2 858 3 857 835 0 835 0 7 -85 c9 -118
56 -322 100 -440 239 -630 834 -1105 1503 -1199 44 -6 112 -16 152 -21 167
-23 508 -1 722 46 238 52 471 130 679 225 35 16 65 29 67 29 7 0 219 122 249
144 17 11 35 26 39 31 4 6 6 294 5 640 l-3 630 900 0 900 0 5 -855 5 -855
1478 -3 1477 -2 0 370 0 370 -1015 0 -1015 0 0 380 0 380 890 0 889 0 3 108 3
107 1005 0 1005 0 5 -855 5 -855 468 -3 467 -2 0 525 0 525 243 0 c133 0 287
1 342 1 168 1 175 1 182 -18 4 -10 39 -76 78 -148 92 -168 150 -275 217 -405
30 -58 74 -141 98 -185 24 -44 63 -120 88 -170 24 -49 47 -97 52 -105 6 -13
78 -15 539 -18 293 -1 531 1 529 5 -1 5 -19 33 -39 63 -20 30 -81 125 -135
210 -88 139 -130 205 -260 405 -21 33 -41 65 -44 71 -5 11 -130 207 -237 372
-70 106 -70 100 12 144 152 80 312 232 411 390 l29 47 972 1 973 0 2 -853 3
-852 463 0 462 0 0 852 0 853 955 0 955 0 2 -852 3 -853 1478 -3 1477 -2 0
370 0 370 -1012 2 -1013 3 -3 378 -2 377 890 0 c489 0 890 3 891 8 5 49 5 713
0 721 -5 8 -264 12 -892 13 l-884 3 -3 368 -2 367 982 0 983 0 -5 367 -5 368
-1440 0 -1440 0 -3 -899 c-1 -519 -6 -902 -11 -905 -5 -3 -434 -4 -953 -1
l-943 5 -2 900 -2 900 -463 0 -463 0 -3 -903 -2 -902 -928 2 c-818 3 -927 5
-923 18 1 8 15 60 29 115 25 96 26 111 27 370 0 263 -1 272 -28 369 -70 255
-142 383 -314 553 -189 186 -469 307 -843 365 -66 10 -302 13 -1045 13 l-960
0 -5 -900 -5 -900 -915 -3 c-503 -2 -957 0 -1007 3 l-93 7 0 159 0 159 -890 0
-890 0 0 370 0 370 985 0 985 0 0 370 0 370 -1447 -2 -1448 -3 -3 -897 -2
-898 -2180 0 c-1936 0 -2181 2 -2186 15 -13 34 19 221 53 315 73 199 174 342
333 474 122 100 205 146 348 192 128 40 190 47 391 41 166 -5 198 -9 291 -35
225 -63 410 -157 592 -300 50 -39 60 -43 74 -31 9 7 81 90 159 184 78 93 191
228 250 298 59 71 104 132 99 136 -271 243 -729 448 -1154 516 -95 15 -517 31
-560 20z m10096 -784 c163 -35 283 -111 363 -230 63 -94 73 -130 79 -288 7
-218 -23 -326 -128 -452 -44 -53 -55 -61 -102 -70 -36 -8 -233 -10 -598 -9
l-545 3 -3 533 -2 532 423 0 c379 0 433 -2 513 -19z m-16123 -693 c10 -7 25
-25 35 -39 52 -81 98 -142 157 -214 63 -75 65 -80 44 -87 -12 -5 -77 -7 -143
-6 l-121 3 -3 178 c-1 97 1 177 6 177 4 0 16 -6 25 -12z m1647 -683 c0 -93 -4
-136 -12 -141 -7 -4 -16 0 -22 11 -6 10 -52 73 -103 141 -67 89 -88 124 -76
126 8 2 60 2 114 0 l99 -3 0 -134z m5257 -265 l3 -395 -68 -29 c-238 -101
-368 -135 -548 -143 -196 -9 -341 16 -504 86 -279 120 -522 397 -600 683 -22
84 -39 185 -32 193 3 3 397 4 876 3 l871 -3 2 -395z"/>
</g>
</svg>
